<svg width="20" height="20" viewBox="0 0 20 20" fill="none" xmlns="http://www.w3.org/2000/svg">
<path fill-rule="evenodd" clip-rule="evenodd" d="M5.7587 4.31291e-07H14.2413C15.0463 -1.23241e-05 15.7106 -2.28137e-05 16.2518 0.0441945C16.8139 0.0901197 17.3306 0.188684 17.816 0.435975C18.5686 0.819468 19.1805 1.43139 19.564 2.18404C19.8113 2.66937 19.9099 3.18608 19.9558 3.74817C20 4.28936 20 4.95372 20 5.75868V14.2413C20 15.0463 20 15.7106 19.9558 16.2518C19.9099 16.8139 19.8113 17.3306 19.564 17.816C19.1805 18.5686 18.5686 19.1805 17.816 19.564C17.3306 19.8113 16.8139 19.9099 16.2518 19.9558C15.7106 20 15.0463 20 14.2413 20H5.75868C4.95372 20 4.28936 20 3.74817 19.9558C3.18608 19.9099 2.66937 19.8113 2.18404 19.564C1.43139 19.1805 0.819468 18.5686 0.435975 17.816C0.188684 17.3306 0.0901197 16.8139 0.0441945 16.2518C-2.28137e-05 15.7106 -1.23241e-05 15.0463 4.31293e-07 14.2413V5.7587C-1.23241e-05 4.95373 -2.28137e-05 4.28937 0.0441945 3.74817C0.0901197 3.18608 0.188684 2.66937 0.435975 2.18404C0.819468 1.43139 1.43139 0.819468 2.18404 0.435975C2.66937 0.188684 3.18608 0.0901197 3.74817 0.0441945C4.28937 -2.28137e-05 4.95373 -1.23241e-05 5.7587 4.31291e-07ZM15.2071 6.29289C15.5976 6.68342 15.5976 7.31658 15.2071 7.70711L9.20711 13.7071C8.81658 14.0976 8.18342 14.0976 7.79289 13.7071L4.79289 10.7071C4.40237 10.3166 4.40237 9.68342 4.79289 9.29289C5.18342 8.90237 5.81658 8.90237 6.20711 9.29289L8.5 11.5858L13.7929 6.29289C14.1834 5.90237 14.8166 5.90237 15.2071 6.29289Z" fill="#14CCCC"/>
</svg>
