<svg width="28" height="18" viewBox="0 0 28 18" fill="none" xmlns="http://www.w3.org/2000/svg">
<path d="M15.1788 17.3996C6.15896 17.3996 1.01417 11.0933 0.799805 0.599609H5.31798C5.46639 8.30171 8.79731 11.5642 11.4357 12.2368V0.599609H15.69V7.24225C18.2954 6.95637 21.0327 3.92934 21.9561 0.599609H26.2104C25.8625 2.3265 25.1688 3.96159 24.1729 5.40261C23.177 6.84363 21.9003 8.05957 20.4225 8.97438C22.072 9.81028 23.529 10.9934 24.6972 12.4457C25.8654 13.898 26.7184 15.5864 27.1998 17.3996H22.5167C22.0846 15.8247 21.2063 14.415 19.9919 13.347C18.7775 12.279 17.281 11.6003 15.69 11.396V17.3996H15.1788Z" fill="#0077FF"/>
</svg>
