<?xml version="1.0" standalone="no"?>
<!DOCTYPE svg PUBLIC "-//W3C//DTD SVG 20010904//EN"
 "http://www.w3.org/TR/2001/REC-SVG-20010904/DTD/svg10.dtd">
<svg version="1.0" xmlns="http://www.w3.org/2000/svg"
 width="512.000000pt" height="512.000000pt" viewBox="0 0 512.000000 512.000000"
 preserveAspectRatio="xMidYMid meet">
<metadata>
Created by potrace 1.14, written by Peter Selinger 2001-2017
</metadata>
<g transform="translate(0.000000,512.000000) scale(0.100000,-0.100000)"
fill="#000000" stroke="none">
<path d="M400 5113 c-175 -30 -316 -151 -377 -325 -17 -51 -18 -140 -18 -2228
0 -2088 1 -2177 18 -2228 53 -152 157 -256 309 -309 51 -17 140 -18 2228 -18
2088 0 2177 1 2228 18 152 53 256 157 309 309 17 51 18 140 18 2228 0 2088 -1
2177 -18 2228 -52 149 -151 249 -303 308 -47 18 -120 19 -2209 20 -1188 1
-2171 -1 -2185 -3z m1488 -685 c5 -18 157 -599 338 -1290 181 -691 332 -1254
335 -1250 3 4 151 561 328 1237 178 677 329 1254 337 1283 l15 52 575 0 574 0
0 -1900 0 -1900 -355 0 -355 0 -1 1488 0 1487 -368 -1460 c-202 -803 -371
-1472 -375 -1488 l-6 -27 -372 2 -371 3 -371 1480 -371 1480 -3 -1482 -2
-1483 -355 0 -355 0 0 1900 0 1900 575 0 574 0 9 -32z"/>
</g>
</svg>
